<?xml version="1.0" ?>
<svg xmlns="http://www.w3.org/2000/svg" width="120mm" height="120mm" viewBox="0 0 120 120">
	<rect x="0.5" y="0.5" width="119" height="119" rx="4" ry="4" stroke="black" fill="none" stroke-width="0.2"/>
	<circle cx="8" cy="8" r="1.6" stroke="black" fill="none" stroke-width="0.2"/>
	<text x="8" y="5.5" font-size="2.5" text-anchor="middle">M3</text>
	<circle cx="112" cy="8" r="1.6" stroke="black" fill="none" stroke-width="0.2"/>
	<text x="112" y="5.5" font-size="2.5" text-anchor="middle">M3</text>
	<circle cx="8" cy="112" r="1.6" stroke="black" fill="none" stroke-width="0.2"/>
	<text x="8" y="109.5" font-size="2.5" text-anchor="middle">M3</text>
	<circle cx="112" cy="112" r="1.6" stroke="black" fill="none" stroke-width="0.2"/>
	<text x="112" y="109.5" font-size="2.5" text-anchor="middle">M3</text>
	<rect x="24.0" y="26.0" width="72" height="52" rx="3" ry="3" stroke="black" fill="none" stroke-width="0.2"/>
	<text x="60.0" y="24.0" font-size="3" text-anchor="middle">RFID WINDOW (RC522)</text>
	<circle cx="60.0" cy="16" r="4" stroke="black" fill="none" stroke-width="0.2"/>
	<text x="60.0" y="12" font-size="3" text-anchor="middle">CAM</text>
	<circle cx="102" cy="20" r="10" stroke="black" fill="none" stroke-width="0.2"/>
	<text x="102" y="10" font-size="3" text-anchor="middle">PIR</text>
	<circle cx="54.0" cy="90.0" r="2.6" stroke="black" fill="none" stroke-width="0.2"/>
	<circle cx="66.0" cy="90.0" r="2.6" stroke="black" fill="none" stroke-width="0.2"/>
	<text x="60.0" y="99.0" font-size="3" text-anchor="middle">LEDs</text>
	<circle cx="20" cy="96" r="6" stroke="black" fill="none" stroke-width="0.2"/>
	<circle cx="16" cy="96" r="1.2" stroke="black" fill="none" stroke-width="0.2"/>
	<circle cx="20" cy="96" r="1.2" stroke="black" fill="none" stroke-width="0.2"/>
	<circle cx="24" cy="96" r="1.2" stroke="black" fill="none" stroke-width="0.2"/>
	<text x="20" y="108" font-size="3" text-anchor="middle">BUZZER</text>
	<rect x="40.0" y="102.0" width="40" height="18" rx="2" ry="2" stroke="gray" fill="none" stroke-width="0.2"/>
	<circle cx="43.0" cy="105.0" r="1.4" stroke="gray" fill="none" stroke-width="0.2"/>
	<circle cx="77.0" cy="105.0" r="1.4" stroke="gray" fill="none" stroke-width="0.2"/>
	<circle cx="43.0" cy="117.0" r="1.4" stroke="gray" fill="none" stroke-width="0.2"/>
	<circle cx="77.0" cy="117.0" r="1.4" stroke="gray" fill="none" stroke-width="0.2"/>
	<text x="60.0" y="126.0" font-size="2.8" text-anchor="middle">LED SERVICE HATCH</text>
</svg>
